<svg width="200" height="200" viewBox="0 0 200 200" fill="none" xmlns="http://www.w3.org/2000/svg">
  <rect width="200" height="200" fill="#E5E7EB"/>
  <path d="M100 100C117.673 100 132 85.6731 132 68C132 50.3269 117.673 36 100 36C82.3269 36 68 50.3269 68 68C68 85.6731 82.3269 100 100 100Z" fill="#9CA3AF"/>
  <path d="M100 116C66.8628 116 40 142.863 40 176H160C160 142.863 133.137 116 100 116Z" fill="#9CA3AF"/>
  <path d="M100 89.6C112.487 89.6 122.6 79.4867 122.6 67C122.6 54.5133 112.487 44.4 100 44.4C87.5133 44.4 77.4 54.5133 77.4 67C77.4 79.4867 87.5133 89.6 100 89.6Z" fill="#E5E7EB"/>
  <path d="M100 106.8C74.0471 106.8 52.4 128.447 52.4 154.4H147.6C147.6 128.447 125.953 106.8 100 106.8Z" fill="#E5E7EB"/>
</svg> 